# xmcd CD database file generated by Grip 3.3.1
# 
# Track frame offsets:
#       150
#       13247
#       24355
#       40229
#       54686
#       71357
#       86251
#       95544
#       105226
#       126275
#       143061
#       152409
#       165003
#       177087
# 
# Disc length: 2543 seconds
# 
# Revision: 1
# Processed by: cddbd v1.5.2PL0 Copyright (c) Steve Scherf et al.
# Submitted via: Grip 3.3.1
# 
DISCID=9e09ed0e
DTITLE=The Flying W Wranglers - Cowboy Classics, Two
DYEAR=1995
DGENRE=Country
TTITLE0=Mariah
TTITLE1=Don't Fence Me In
TTITLE2=Somewhere in Montana
TTITLE3=Colorado
TTITLE4=Gin Dust
TTITLE5=Cool Water
TTITLE6=Ride Cowboy Ride
TTITLE7=Rawhide
TTITLE8=El Paso
TTITLE9=If You Want to be a Cowboy
TTITLE10=Home in San Antone
TTITLE11=Colorado Trail
TTITLE12=Yodel Stampede
TTITLE13=Doggone Cowboy
EXTD=ID3G: 2
EXTT0=
EXTT1=
EXTT2=
EXTT3=
EXTT4=
EXTT5=
EXTT6=
EXTT7=
EXTT8=
EXTT9=
EXTT10=
EXTT11=
EXTT12=
EXTT13=
PLAYORDER=
